<svg width="78" height="87" viewBox="0 0 78 87" fill="none" xmlns="http://www.w3.org/2000/svg">
<path d="M39 84.2812C59.1929 84.2812 75.5625 66.0229 75.5625 43.5C75.5625 20.9771 59.1929 2.71875 39 2.71875C18.8071 2.71875 2.4375 20.9771 2.4375 43.5C2.4375 66.0229 18.8071 84.2812 39 84.2812Z" fill="#00ADFE"/>
<path opacity="0.3" d="M39 76.125C55.1543 76.125 68.25 61.5183 68.25 43.5C68.25 25.4817 55.1543 10.875 39 10.875C22.8457 10.875 9.75 25.4817 9.75 43.5C9.75 61.5183 22.8457 76.125 39 76.125Z" fill="white"/>
<path d="M18.9395 41.8484V31.2113C18.9395 25.277 21.053 19.5857 24.8151 15.3895C28.5772 11.1933 33.6797 8.83594 39.0001 8.83594C44.3205 8.83594 49.423 11.1933 53.1851 15.3895C56.9472 19.5857 59.0607 25.277 59.0607 31.2113V41.8484H18.9395Z" fill="#393C54"/>
<path d="M55.6483 46.4634C58.3171 46.4634 60.4806 44.0503 60.4806 41.0735C60.4806 38.0967 58.3171 35.6836 55.6483 35.6836C52.9794 35.6836 50.8159 38.0967 50.8159 41.0735C50.8159 44.0503 52.9794 46.4634 55.6483 46.4634Z" fill="#FBA875"/>
<path d="M39 84.3492C47.996 84.3631 56.6784 80.6637 63.375 73.9636L61.9186 70.103C60.8766 67.3842 58.1283 65.5898 55.0387 65.5898H22.9673C19.8778 65.5898 17.1295 67.3978 16.0875 70.103L14.625 73.9636C21.3216 80.6637 30.004 84.3631 39 84.3492Z" fill="#B56B63"/>
<path d="M49.7982 66.7793C49.77 66.2469 49.5596 65.7468 49.2103 65.3825C48.861 65.0181 48.3995 64.8174 47.9213 64.8218H30.0788C29.596 64.8195 29.1311 65.0255 28.7813 65.3966C28.4315 65.7678 28.2239 66.2754 28.2019 66.8133C28.2019 66.8881 28.2019 66.9561 28.2019 67.0308C28.0983 72.0061 34.6125 78.3408 34.6125 78.3408L39 73.4403L43.3693 78.3136C43.3693 78.3136 49.8043 72.1965 49.8043 67.2891C49.8043 67.1124 49.8043 66.9425 49.7982 66.7793Z" fill="white"/>
<path d="M39 57.6035V66.9492" stroke="#FBA875" stroke-width="20" stroke-miterlimit="10" stroke-linecap="round"/>
<path d="M22.3519 46.4634C25.0207 46.4634 27.1842 44.0503 27.1842 41.0735C27.1842 38.0967 25.0207 35.6836 22.3519 35.6836C19.683 35.6836 17.5195 38.0967 17.5195 41.0735C17.5195 44.0503 19.683 46.4634 22.3519 46.4634Z" fill="#FBA875"/>
<path d="M39.0002 64.1421C36.7337 64.1429 34.4892 63.6457 32.3951 62.6786C30.3009 61.7116 28.3982 60.2938 26.7955 58.5062C25.1928 56.7186 23.9217 54.5963 23.0547 52.2605C22.1877 49.9248 21.7419 47.4213 21.7427 44.8933V32.2375C21.7427 27.1324 23.5609 22.2364 26.7973 18.6266C30.0337 15.0168 34.4232 12.9888 39.0002 12.9888C43.5772 12.9888 47.9667 15.0168 51.2031 18.6266C54.4395 22.2364 56.2577 27.1324 56.2577 32.2375V44.8933C56.2585 47.4213 55.8127 49.9248 54.9457 52.2605C54.0787 54.5963 52.8075 56.7186 51.2049 58.5062C49.6022 60.2938 47.6994 61.7116 45.6053 62.6786C43.5112 63.6457 41.2667 64.1429 39.0002 64.1421Z" fill="#FFBB94"/>
<path d="M47.2266 42.3309C48.2362 42.3309 49.0547 41.418 49.0547 40.2919C49.0547 39.1657 48.2362 38.2528 47.2266 38.2528C46.2169 38.2528 45.3984 39.1657 45.3984 40.2919C45.3984 41.418 46.2169 42.3309 47.2266 42.3309Z" fill="#393C54"/>
<path d="M30.7734 42.3309C31.7831 42.3309 32.6016 41.418 32.6016 40.2919C32.6016 39.1657 31.7831 38.2528 30.7734 38.2528C29.7638 38.2528 28.9453 39.1657 28.9453 40.2919C28.9453 41.418 29.7638 42.3309 30.7734 42.3309Z" fill="#393C54"/>
<path opacity="0.4" d="M45.5142 36.0234L51.3763 35.8535" stroke="#515570" stroke-width="2" stroke-linecap="round" stroke-linejoin="round"/>
<path opacity="0.4" d="M32.4857 36.0234L26.6235 35.8535" stroke="#515570" stroke-width="2" stroke-linecap="round" stroke-linejoin="round"/>
<path d="M56.2577 44.0505H55.5874C55.0701 44.0505 54.5738 44.2783 54.2063 44.6843C53.8389 45.0904 53.63 45.6418 53.6252 46.2187C53.6252 46.7992 53.4185 47.3559 53.0505 47.7663C52.6825 48.1768 52.1834 48.4073 51.663 48.4073H26.3374C25.817 48.4073 25.3179 48.1768 24.9499 47.7663C24.5819 47.3559 24.3752 46.7992 24.3752 46.2187C24.3752 45.6383 24.1684 45.0816 23.8005 44.6712C23.4325 44.2607 22.9334 44.0302 22.413 44.0302H21.7427V55.9247C21.7427 66.4123 29.1161 75.2754 38.5127 75.5677C40.8191 75.6404 43.1153 75.1964 45.2652 74.2621C47.4152 73.3278 49.3754 71.9221 51.0298 70.1281C52.6842 68.3341 53.9993 66.1883 54.8972 63.8176C55.7952 61.4468 56.2578 58.8993 56.2577 56.3257V44.0505Z" fill="#393C54"/>
<path d="M43.6006 50.9766C43.6812 50.9817 43.7601 51.0047 43.8327 51.0442C43.9053 51.0837 43.9701 51.1389 44.0234 51.2065C44.0767 51.2742 44.1174 51.353 44.1431 51.4384C44.1689 51.5238 44.1792 51.614 44.1734 51.7038C44.0225 53.1178 43.4119 54.421 42.4573 55.3665C41.5027 56.3121 40.2704 56.8343 38.9937 56.8343C37.717 56.8343 36.4847 56.3121 35.5301 55.3665C34.5755 54.421 33.9649 53.1178 33.814 51.7038C33.8082 51.6129 33.8189 51.5216 33.8454 51.4354C33.8719 51.3491 33.9137 51.2697 33.9683 51.2019C34.0229 51.134 34.0891 51.0791 34.1631 51.0404C34.2371 51.0017 34.3174 50.98 34.399 50.9766H43.6006Z" fill="white"/>
<path d="M39 41.291V45.709" stroke="#FBA875" stroke-width="4" stroke-miterlimit="10" stroke-linecap="round"/>
<path d="M40.5234 46.2188H37.4766" stroke="#FBA875" stroke-width="4" stroke-miterlimit="10" stroke-linecap="round"/>
<path d="M21.9375 38.0625V24.4688" stroke="#393C54" stroke-width="4" stroke-miterlimit="10" stroke-linecap="round"/>
<path d="M56.0625 38.0625V23.7891" stroke="#393C54" stroke-width="4" stroke-miterlimit="10" stroke-linecap="round"/>
<path d="M18.8906 16.197C18.8906 18.9316 19.8646 21.5542 21.5982 23.4878C23.3318 25.4215 25.6831 26.5078 28.1348 26.5078H55.7578C55.8551 26.5125 55.9521 26.4911 56.0404 26.4454C56.1288 26.3997 56.2061 26.3311 56.2658 26.2452C56.3255 26.1593 56.3658 26.0587 56.3835 25.9519C56.4011 25.845 56.3955 25.735 56.3672 25.631C55.1797 21.5372 52.8587 17.9689 49.738 15.4395C46.6172 12.9101 42.8577 11.55 39 11.5547H18.8906V16.197Z" fill="#515570"/>
<path opacity="0.1" d="M42.9609 22.4297H29.0854C27.4693 22.4297 25.9193 21.7136 24.7765 20.4389C23.6337 19.1643 22.9917 17.4355 22.9917 15.6328" stroke="white" stroke-width="4" stroke-miterlimit="10" stroke-linecap="round"/>
<path opacity="0.3" d="M39.6094 45.5391H40.8281" stroke="#F85565" stroke-width="2" stroke-linecap="round" stroke-linejoin="round"/>
<path opacity="0.1" d="M30.7245 48.0199C32.2659 48.0199 33.5155 47.1131 33.5155 45.9945C33.5155 44.8758 32.2659 43.969 30.7245 43.969C29.1831 43.969 27.9336 44.8758 27.9336 45.9945C27.9336 47.1131 29.1831 48.0199 30.7245 48.0199Z" fill="#F85565"/>
</svg>
